<svg width="21" height="21" viewBox="0 0 21 21" fill="none" xmlns="http://www.w3.org/2000/svg">
<g clip-path="url(#clip0_7_1844)">
<path d="M21 16.2747V16.9989C20.9989 17.3983 20.6754 17.7218 20.2758 17.7229H0.724182C0.3246 17.7218 0.00112152 17.3983 0 16.9989V16.2747H21Z" fill="#E6E7E8"/>
<path d="M21 3.96442V16.2747H0V3.96442C0.00112152 3.56483 0.3246 3.24136 0.724182 3.24023H20.2758C20.6754 3.24136 20.9989 3.56499 21 3.96442Z" fill="#C03A2B"/>
<path d="M0.724182 3.24023H10.1379V10.4816H0V3.96442C0 3.56451 0.32412 3.24023 0.724182 3.24023Z" fill="#285680"/>
<path d="M10.1379 4.6886H21V6.1368H10.1379V4.6886Z" fill="#E6E7E8"/>
<path d="M10.1379 7.58501H21V9.03337H10.1379V7.58501Z" fill="#E6E7E8"/>
<path d="M0 10.4816H21V11.9299H0V10.4816Z" fill="#E6E7E8"/>
<path d="M13.1503 14.8265H21V13.3781H0V14.8265H7.84969" fill="#E6E7E8"/>
<path d="M0.724182 3.60233L0.89209 3.94231L1.26732 3.99694L0.99575 4.26162L1.05984 4.63525L0.724182 4.45901L0.388527 4.63525L0.452614 4.26162L0.181046 3.99694L0.556114 3.94231L0.724182 3.60233Z" fill="#ECF0F1"/>
<path d="M2.17239 3.60233L2.34045 3.94231L2.71552 3.99694L2.44395 4.26162L2.50804 4.63525L2.17239 4.45901L1.83673 4.63525L1.90082 4.26162L1.62925 3.99694L2.00448 3.94231L2.17239 3.60233Z" fill="#ECF0F1"/>
<path d="M3.62075 3.60233L3.78866 3.94231L4.16373 3.99694L3.89232 4.26162L3.95641 4.63525L3.62075 4.45901L3.2851 4.63525L3.34918 4.26162L3.07761 3.99694L3.45268 3.94231L3.62075 3.60233Z" fill="#ECF0F1"/>
<path d="M5.06895 3.60233L5.23702 3.94231L5.61209 3.99694L5.34052 4.26162L5.40461 4.63525L5.06895 4.45901L4.7333 4.63525L4.79739 4.26162L4.52582 3.99694L4.90089 3.94231L5.06895 3.60233Z" fill="#ECF0F1"/>
<path d="M6.51732 3.60233L6.68523 3.94231L7.0603 3.99694L6.78873 4.26162L6.85281 4.63525L6.51732 4.45901L6.18166 4.63525L6.24575 4.26162L5.97418 3.99694L6.34925 3.94231L6.51732 3.60233Z" fill="#ECF0F1"/>
<path d="M7.96552 3.60233L8.13359 3.94231L8.50866 3.99694L8.23709 4.26162L8.30118 4.63525L7.96552 4.45901L7.62987 4.63525L7.69395 4.26162L7.42239 3.99694L7.79745 3.94231L7.96552 3.60233Z" fill="#ECF0F1"/>
<path d="M9.41373 3.60233L9.58179 3.94231L9.95686 3.99694L9.6853 4.26162L9.74938 4.63525L9.41373 4.45901L9.07823 4.63525L9.14232 4.26162L8.87075 3.99694L9.24582 3.94231L9.41373 3.60233Z" fill="#ECF0F1"/>
<path d="M1.53873 4.97346L1.70679 5.31345L2.08186 5.36808L1.8103 5.63276L1.87438 6.00639L1.53873 5.82983L1.20323 6.00639L1.26732 5.63276L0.99575 5.36808L1.37082 5.31345L1.53873 4.97346Z" fill="#ECF0F1"/>
<path d="M2.98709 4.97346L3.15516 5.31345L3.53023 5.36808L3.25866 5.63276L3.32275 6.00639L2.98709 5.82983L2.65144 6.00639L2.71552 5.63276L2.44395 5.36808L2.81902 5.31345L2.98709 4.97346Z" fill="#ECF0F1"/>
<path d="M4.4353 4.97346L4.60336 5.31345L4.97843 5.36808L4.70686 5.63276L4.77095 6.00639L4.4353 5.82983L4.09964 6.00639L4.16373 5.63276L3.89232 5.36808L4.26739 5.31345L4.4353 4.97346Z" fill="#ECF0F1"/>
<path d="M5.88366 4.97346L6.05157 5.31345L6.4268 5.36808L6.15523 5.63276L6.21931 6.00639L5.88366 5.82983L5.548 6.00639L5.61209 5.63276L5.34052 5.36808L5.71559 5.31345L5.88366 4.97346Z" fill="#ECF0F1"/>
<path d="M7.33186 4.97346L7.49993 5.31345L7.875 5.36808L7.60343 5.63276L7.66752 6.00639L7.33186 5.82983L6.99621 6.00639L7.0603 5.63276L6.78873 5.36808L7.16396 5.31345L7.33186 4.97346Z" fill="#ECF0F1"/>
<path d="M8.78023 4.97346L8.94814 5.31345L9.3232 5.36808L9.0518 5.63276L9.11588 6.00639L8.78023 5.82983L8.44457 6.00639L8.50866 5.63276L8.23709 5.36808L8.61216 5.31345L8.78023 4.97346Z" fill="#ECF0F1"/>
<path d="M0.724182 6.34428L0.89209 6.68459L1.26732 6.7389L0.99575 7.00358L1.05984 7.37753L0.724182 7.20097L0.388527 7.37753L0.452614 7.00358L0.181046 6.7389L0.556114 6.68459L0.724182 6.34428Z" fill="#ECF0F1"/>
<path d="M2.17239 6.34428L2.34045 6.68459L2.71552 6.7389L2.44395 7.00358L2.50804 7.37753L2.17239 7.20097L1.83673 7.37753L1.90082 7.00358L1.62925 6.7389L2.00448 6.68459L2.17239 6.34428Z" fill="#ECF0F1"/>
<path d="M3.62075 6.34428L3.78866 6.68459L4.16373 6.7389L3.89232 7.00358L3.95641 7.37753L3.62075 7.20097L3.2851 7.37753L3.34918 7.00358L3.07761 6.7389L3.45268 6.68459L3.62075 6.34428Z" fill="#ECF0F1"/>
<path d="M5.06895 6.34428L5.23702 6.68459L5.61209 6.7389L5.34052 7.00358L5.40461 7.37753L5.06895 7.20097L4.7333 7.37753L4.79739 7.00358L4.52582 6.7389L4.90089 6.68459L5.06895 6.34428Z" fill="#ECF0F1"/>
<path d="M6.51732 6.34428L6.68523 6.68459L7.0603 6.7389L6.78873 7.00358L6.85281 7.37753L6.51732 7.20097L6.18166 7.37753L6.24575 7.00358L5.97418 6.7389L6.34925 6.68459L6.51732 6.34428Z" fill="#ECF0F1"/>
<path d="M7.96552 6.34428L8.13359 6.68459L8.50866 6.7389L8.23709 7.00358L8.30118 7.37753L7.96552 7.20097L7.62987 7.37753L7.69395 7.00358L7.42239 6.7389L7.79745 6.68459L7.96552 6.34428Z" fill="#ECF0F1"/>
<path d="M9.41373 6.34428L9.58179 6.68459L9.95686 6.7389L9.6853 7.00358L9.74938 7.37753L9.41373 7.20097L9.07823 7.37753L9.14232 7.00358L8.87075 6.7389L9.24582 6.68459L9.41373 6.34428Z" fill="#ECF0F1"/>
<path d="M0.724182 9.08656L0.89209 9.42654L1.26732 9.48118L0.99575 9.74586L1.05984 10.1195L0.724182 9.94324L0.388527 10.1195L0.452614 9.74586L0.181046 9.48118L0.556114 9.42654L0.724182 9.08656Z" fill="#ECF0F1"/>
<path d="M2.17239 9.08656L2.34045 9.42654L2.71552 9.48118L2.44395 9.74586L2.50804 10.1195L2.17239 9.94324L1.83673 10.1195L1.90082 9.74586L1.62925 9.48118L2.00448 9.42654L2.17239 9.08656Z" fill="#ECF0F1"/>
<path d="M3.62075 9.08656L3.78866 9.42654L4.16373 9.48118L3.89232 9.74586L3.95641 10.1195L3.62075 9.94324L3.2851 10.1195L3.34918 9.74586L3.07761 9.48118L3.45268 9.42654L3.62075 9.08656Z" fill="#ECF0F1"/>
<path d="M5.06895 9.08656L5.23702 9.42654L5.61209 9.48118L5.34052 9.74586L5.40461 10.1195L5.06895 9.94324L4.7333 10.1195L4.79739 9.74586L4.52582 9.48118L4.90089 9.42654L5.06895 9.08656Z" fill="#ECF0F1"/>
<path d="M6.51732 9.08656L6.68523 9.42654L7.0603 9.48118L6.78873 9.74586L6.85281 10.1195L6.51732 9.94324L6.18166 10.1195L6.24575 9.74586L5.97418 9.48118L6.34925 9.42654L6.51732 9.08656Z" fill="#ECF0F1"/>
<path d="M7.96552 9.08656L8.13359 9.42654L8.50866 9.48118L8.23709 9.74586L8.30118 10.1195L7.96552 9.94324L7.62987 10.1195L7.69395 9.74586L7.42239 9.48118L7.79745 9.42654L7.96552 9.08656Z" fill="#ECF0F1"/>
<path d="M9.41373 9.08656L9.58179 9.42654L9.95686 9.48118L9.6853 9.74586L9.74938 10.1195L9.41373 9.94324L9.07823 10.1195L9.14232 9.74586L8.87075 9.48118L9.24582 9.42654L9.41373 9.08656Z" fill="#ECF0F1"/>
<path d="M1.53873 7.71542L1.70679 8.0554L2.08186 8.11004L1.8103 8.37472L1.87438 8.74834L1.53873 8.57211L1.20323 8.74834L1.26732 8.37472L0.99575 8.11004L1.37082 8.0554L1.53873 7.71542Z" fill="#ECF0F1"/>
<path d="M2.98709 7.71542L3.15516 8.0554L3.53023 8.11004L3.25866 8.37472L3.32275 8.74834L2.98709 8.57211L2.65144 8.74834L2.71552 8.37472L2.44395 8.11004L2.81902 8.0554L2.98709 7.71542Z" fill="#ECF0F1"/>
<path d="M4.4353 7.71542L4.60336 8.0554L4.97843 8.11004L4.70686 8.37472L4.77095 8.74834L4.4353 8.57211L4.09964 8.74834L4.16373 8.37472L3.89232 8.11004L4.26739 8.0554L4.4353 7.71542Z" fill="#ECF0F1"/>
<path d="M5.88366 7.71542L6.05157 8.0554L6.4268 8.11004L6.15523 8.37472L6.21931 8.74834L5.88366 8.57211L5.548 8.74834L5.61209 8.37472L5.34052 8.11004L5.71559 8.0554L5.88366 7.71542Z" fill="#ECF0F1"/>
<path d="M7.33186 7.71542L7.49993 8.0554L7.875 8.11004L7.60343 8.37472L7.66752 8.74834L7.33186 8.57211L6.99621 8.74834L7.0603 8.37472L6.78873 8.11004L7.16396 8.0554L7.33186 7.71542Z" fill="#ECF0F1"/>
<path d="M8.78023 7.71542L8.94814 8.0554L9.3232 8.11004L9.0518 8.37472L9.11588 8.74834L8.78023 8.57211L8.44457 8.74834L8.50866 8.37472L8.23709 8.11004L8.61216 8.0554L8.78023 7.71542Z" fill="#ECF0F1"/>
</g>
<defs>
<clipPath id="clip0_7_1844">
<rect width="21" height="21" fill="white"/>
</clipPath>
</defs>
</svg>
