<svg width="17" height="19" viewBox="0 0 17 19" fill="none" xmlns="http://www.w3.org/2000/svg">
<path d="M3.47651 6.2715H13.5253V14.4602C13.5253 14.9466 13.1309 15.341 12.645 15.341H11.6385V17.8349C11.6385 18.4682 11.1334 18.9815 10.5098 18.9815C9.88467 18.9815 9.38028 18.4682 9.38028 17.8349V15.341H7.62237V17.8349C7.62237 18.4682 7.11623 18.9815 6.49272 18.9815C5.86932 18.9815 5.36322 18.4682 5.36322 17.8349V15.341H4.3576C3.87161 15.341 3.47647 14.9466 3.47647 14.4602L3.47651 6.2715ZM1.5073 6.20466C0.877404 6.20466 0.367188 6.72282 0.367188 7.36248V11.8875C0.367188 12.5264 0.877404 13.0454 1.5073 13.0454C2.1373 13.0454 2.64741 12.5264 2.64741 11.8875V7.36248C2.64741 6.72282 2.1373 6.20466 1.5073 6.20466ZM13.5253 5.44633H3.47651C3.60053 4.01473 4.52919 2.78277 5.86605 2.06946L4.91064 0.666573C4.78179 0.477389 4.83041 0.219256 5.01996 0.0904495C5.20929 -0.0383571 5.46691 0.0106272 5.59638 0.199662L6.63771 1.72976C7.21505 1.53011 7.84176 1.41548 8.50089 1.41548C9.16081 1.41548 9.78755 1.53011 10.3649 1.73002L11.4062 0.200219C11.5341 0.0106643 11.7925 -0.03832 11.9818 0.0904866C12.1714 0.219293 12.22 0.477426 12.0912 0.66661L11.1365 2.06949C12.4733 2.78236 13.4014 4.01432 13.5253 5.44633ZM6.93729 3.5011C6.93729 3.19409 6.6887 2.94509 6.3818 2.94509C6.07413 2.94509 5.82553 3.19409 5.82553 3.5011C5.82553 3.80796 6.07494 4.05685 6.3818 4.05685C6.68866 4.05685 6.93729 3.80796 6.93729 3.5011ZM11.2467 3.5011C11.2467 3.19409 10.9972 2.94509 10.6904 2.94509C10.3827 2.94509 10.1349 3.19409 10.1349 3.5011C10.1349 3.80796 10.3827 4.05685 10.6904 4.05685C10.9973 4.05685 11.2467 3.80796 11.2467 3.5011ZM15.4953 6.20307C14.866 6.20307 14.3544 6.72201 14.3544 7.3617V11.8883C14.3544 12.528 14.866 13.0471 15.4953 13.0471C16.1253 13.0471 16.6346 12.528 16.6346 11.8883V7.3617C16.6346 6.72201 16.1253 6.20307 15.4953 6.20307Z" fill="#73788A"/>
</svg>
