<svg width="14" height="17" viewBox="0 0 14 17" fill="none" xmlns="http://www.w3.org/2000/svg">
<path fill-rule="evenodd" clip-rule="evenodd" d="M9.52897 2.71397C10.1294 1.99572 10.5341 0.995342 10.4233 0C9.55811 0.0340003 8.51134 0.57048 7.89095 1.28788C7.33384 1.92453 6.84751 2.94179 6.97825 3.91759C7.94341 3.99153 8.92855 3.43306 9.52897 2.71397ZM11.6933 9.03133C11.7174 11.6043 13.975 12.4602 14 12.4712C13.9817 12.5316 13.6394 13.6908 12.8108 14.8892C12.0938 15.9246 11.3502 16.9556 10.1785 16.9777C9.02765 16.999 8.65708 16.3029 7.3405 16.3029C6.02475 16.3029 5.61338 16.9556 4.52414 16.9989C3.39327 17.0406 2.53137 15.8788 1.80937 14.8469C0.332076 12.7364 -0.796299 8.88266 0.719306 6.28167C1.47211 4.99053 2.817 4.17166 4.27764 4.15126C5.3877 4.13001 6.43613 4.89004 7.11483 4.89004C7.79352 4.89004 9.06762 3.97628 10.4067 4.11059C10.9671 4.13354 12.541 4.33407 13.5511 5.7969C13.4695 5.84705 11.6733 6.88085 11.6933 9.03133Z" fill="#73788A"/>
</svg>
