<svg width="22" height="22" viewBox="0 0 22 22" fill="none" xmlns="http://www.w3.org/2000/svg">
<path d="M21.6207 18.2069H0.379328C0.169855 18.2069 0 18.037 0 17.8276V14.4138H22V17.8276C22 18.0371 21.8301 18.2069 21.6207 18.2069Z" fill="#73AF00"/>
<path d="M21.6207 3.79311H0.379328C0.169855 3.79311 0 3.96297 0 4.17244V14.4138H22V4.17244C22 3.96297 21.8301 3.79311 21.6207 3.79311Z" fill="#FF4B55"/>
<path d="M3.0345 18.2069H0.379328C0.169855 18.2069 0 18.037 0 17.8276V4.17244C0 3.96297 0.169855 3.79311 0.379328 3.79311H3.0345V18.2069Z" fill="#F5F5F5"/>
<path d="M0.379539 17.5769H0.513688V17.2009H0.379539V17.5769ZM1.45023 17.5769H1.58443V17.2009H1.45023V17.5769ZM2.52162 17.5769H2.65516V17.2009H2.52162V17.5769ZM0.915575 16.5689H1.04839V16.2555H0.915575V16.5689ZM1.98691 16.5689H2.12046V16.2555H1.98691V16.5689ZM0.379539 15.7515H0.513688V15.3755H0.379539V15.7515ZM1.45023 15.7515H1.58443V15.3755H1.45023V15.7515ZM2.52162 15.7515H2.65516V15.3755H2.52162V15.7515ZM0.648567 16.2555H0.781383V15.9394H0.915575V15.6261H1.04839V15.9394H1.18327V16.2555H1.31609V16.5689H1.18327V16.8849H1.04839V17.2009H0.915575V16.8849H0.781383V16.5689H0.648567V16.2555ZM1.71931 16.2555H1.85345V15.9394H1.98696V15.6261H2.1205V15.9394H2.25401V16.2555H2.38816V16.5689H2.25401V16.8849H2.1205V17.2009H1.98696V16.8849H1.85345V16.5689H1.71931V16.2555ZM1.98691 14.9968V15.3102H1.85212V15.6261H1.71931V15.9395H1.58443V16.2556H1.45023V15.9395H1.31604V15.6261H1.18323V15.3102H1.04835V14.9968H0.915532V15.3102H0.78134V15.6261H0.648524V15.9395H0.513645V16.2556H0.379539V16.5689H0.513688V16.8849H0.648567V17.2009H0.781383V17.5142H0.915575V17.8276H1.04977V17.5142H1.18327V17.2009H1.31609V16.8849H1.45028V16.5689H1.58447V16.8849H1.71935V17.2009H1.8535V17.5142H1.987V17.8276H2.12055V17.5142H2.25405V17.2009H2.3882V16.8849H2.52239V16.5689H2.65521V16.2556H2.52166V15.9395H2.3882V15.6261H2.25405V15.3102H2.12055V14.9968H1.98691ZM2.31863 14.6836H2.38541V14.5583H2.45282V14.6836H2.52024V14.8088H2.45282V14.9369H2.38541V14.8088H2.31863V14.6836ZM2.31863 14.2449V14.4302H2.25259V14.6209H2.18517V14.8716H2.25259V15.0595H2.31863V15.2475H2.52029V15.0595H2.58706V14.8716H2.6531V14.6209H2.58706V14.4302H2.52029V14.2449H2.31863ZM0.513688 14.6808H0.581106V14.5555H0.648524V14.6808H0.713879V14.8088H0.648524V14.9341H0.581106V14.8088H0.513688V14.6808ZM0.513688 14.2421V14.4302H0.446914V14.6181H0.379539V14.8715H0.446914V15.0594H0.513688V15.2474H0.713922V15.0594H0.78134V14.8715H0.846782V14.6181H0.78134V14.4302H0.713922V14.2421H0.513688ZM1.24996 14.6808H1.316V14.5555H1.38415V14.6808H1.45019V14.8088H1.38415V14.9341H1.316V14.8088H1.24996V14.6808ZM1.58443 14.6808H1.65184V14.5555H1.71926V14.6808H1.78531V14.8088H1.71926V14.9341H1.65184V14.8088H1.58443V14.6808ZM1.58443 14.2421V14.4302H1.45023V14.2421H1.25V14.4302H1.18323V14.6181H1.11581V14.8715H1.18323V15.0594H1.25V15.2474H1.45023V15.0594H1.58443V15.2474H1.78535V15.0594H1.85345V14.8715H1.9189V14.6181H1.85345V14.4302H1.78535V14.2421H1.58443ZM0.379539 14.1141H0.513688V13.7381H0.379539V14.1141ZM1.45023 14.1141H1.58443V13.7381H1.45023V14.1141ZM2.52162 14.1141H2.65516V13.7381H2.52162V14.1141ZM0.379539 12.542H0.513688V12.2914H0.379539V12.542ZM2.52162 12.542H2.65516V12.2914H2.52162V12.542ZM1.45023 11.662H1.58443V11.3487H1.45023V11.662ZM0.379539 10.8121V11V11.0027V11.1907H0.513688V11.0027V11V10.8121H0.379539ZM1.11577 10.8121V11V11.0027V11.1907H1.24996V11.0027V11V10.8121H1.11577ZM1.78535 10.8121V11V11.0027V11.1907H1.91885V11.0027V11V10.8121H1.78535ZM2.52162 10.8121V11V11.0027V11.1907H2.65516V11.0027V11V10.8121H2.52162ZM1.65184 10.5914V10.7167H1.58443V10.8121H1.45023V10.7167H1.38419V10.5914H1.25V10.7794H1.31604V10.8747H1.38419V11V11.0027V11.1253H1.31604V11.2207H1.25V11.4086H1.38419V11.2834H1.45023V11.1907H1.58443V11.2834H1.65184V11.4086H1.78535V11.2207H1.71931V11.1253H1.65189V11.0027V11V10.8747H1.71931V10.7794H1.78535V10.5914H1.65184ZM1.45023 10.654H1.58443V10.3406H1.45023V10.654ZM0.379539 9.71128H0.513688V9.46069H0.379539V9.71128ZM2.52162 9.71128H2.65516V9.46069H2.52162V9.71128ZM0.379539 8.26461H0.513688V7.88597H0.379539V8.26461ZM1.45023 8.26461H1.58443V7.88597H1.45023V8.26461ZM2.52162 8.26461H2.65516V7.88597H2.52162V8.26461ZM0.915575 11.0055V10.9973V10.8747H1.04839V10.6567H1.18327V10.4033H1.38419V10.1064H1.45023V9.96196H1.5177H1.58443V10.1036H1.65184V10.4033H1.85341V10.5286V10.6567H1.98691V10.8747H2.12046V11V11.1253H1.98691V11.3487H1.85341V11.474V11.5993H1.65184V11.8963H1.58443V12.038H1.5177H1.45023V11.8963H1.38419V11.5993H1.18327V11.3486H1.04839V11.1252H0.915575V11.0055ZM1.98691 7.50724V7.82323H1.85212V8.13656H1.71931V8.45268H1.58443V8.70328V8.76597H1.45023V8.45264H1.31604V8.13652H1.18323V7.82319H1.04835V7.5072H0.915532V7.82319H0.78134V8.13652H0.647149V8.45264H0.513645V8.70323V8.76592H0.379539V9.08192H0.513688V9.39791H0.647192V9.71124H0.781383V10.0246H0.915575V9.71124H1.04839V9.39791H1.18327V9.08192H1.04839V8.70319H1.18327V8.76588V8.95658H1.31609V9.46064H1.38423V9.77122L1.18331 9.77393V10.0246H1.04843V10.2126H0.915618V10.5285H0.781426V10.2126H0.647235V10.0246H0.513731V9.83658H0.379539V10.4032H0.513688V10.6566H0.647192V10.8746H0.781383V11V11.0027V11.1253H0.647192V11.3487H0.513688V11.5994H0.379539V12.1661H0.513688V11.9753H0.647192V11.7874H0.781383V11.4741H0.915575V11.7874H1.04839V11.9753H1.18327V12.2287L1.38419 12.2314V12.542H1.31604V13.0461H1.18323V13.234V13.2995H1.04835V12.918H1.18323V12.6047H1.04835V12.2914H0.915532V11.9753H0.78134V12.2914H0.647149V12.6047H0.513645V12.918H0.379539V13.234H0.513688V13.2995V13.5474H0.648567V13.8635H0.781383V14.1795H0.915575V14.4928H1.04839V14.1795H1.18327V13.8635H1.31609V13.5474H1.45028V13.234H1.58447V13.2995V13.5474H1.71935V13.8635H1.8535V14.1795H1.987V14.4928H2.12055V14.1795H2.25405V13.8635H2.3882V13.5474H2.52166V13.234H2.65516V12.918H2.52162V12.6047H2.38816V12.2914H2.25401V11.9753H2.1205V12.2914H1.98696V12.6047H1.85216V12.918H1.98696V13.234V13.2995H1.85216V13.234V13.0461H1.71935V12.542H1.70023H1.65193V12.2287H1.70023H1.73636H1.78539H1.8535V11.9753H1.987V11.7874H2.12055V11.474H2.25405V11.7874H2.3882V11.9753H2.52239V12.166H2.65521V11.5994H2.52235V11.3487H2.38816V11.1253H2.25401V11.0027V11V10.8747H2.38816V10.6567H2.52235V10.4033H2.65521V9.83666H2.52235V10.0247H2.38816V10.2126H2.25401V10.5286H2.1205V10.2126H1.98696V10.0247H1.85345V9.77401H1.78535H1.73632H1.70018H1.65189V9.46069H1.70018H1.71931V8.95662H1.85212V8.76592V8.70323H1.98691V8.76592V9.08192H1.85212V9.39791H1.98691V9.71124H2.12046V10.0246H2.25397V9.71124H2.38811V9.39791H2.52157V9.08192H2.65521V8.76592H2.52166V8.4526H2.3882V8.13648H2.25405V7.82315H2.12055V7.50715H1.98691V7.50724ZM0.513688 7.19391H0.579817V7.06862H0.648567V7.19391H0.713922V7.31921H0.648567V7.44726H0.579817V7.31921H0.513688V7.19391ZM0.513688 6.94053H0.446914V7.13122H0.379539V7.3819H0.446914V7.5726H0.513688V7.76063H0.713922V7.5726H0.78134V7.3819H0.846782V7.13122H0.78134V6.94053H0.713922V6.75529H0.513688V6.94053ZM1.24996 7.19391H1.316V7.06862H1.38415V7.19391H1.45019V7.31921H1.38415V7.44726H1.316V7.31921H1.24996V7.19391ZM1.58443 7.19391H1.65184V7.06862H1.71926V7.19391H1.78531V7.31921H1.71926V7.44726H1.65184V7.31921H1.58443V7.19391ZM1.24996 6.94053H1.18318V7.13122H1.11577V7.3819H1.18318V7.5726H1.24996V7.76063H1.45019V7.5726H1.58438V7.76063H1.78531V7.5726H1.85341V7.3819H1.91885V7.13122H1.85341V6.94053H1.78531V6.75529H1.58438V6.94053H1.45019V6.75529H1.24996V6.94053ZM2.31863 7.19121H2.38541V7.06857H2.45282V7.19121H2.52024V7.31925H2.45282V7.44451H2.38541V7.31925H2.31863V7.19121ZM2.31863 6.75258V6.94053H2.25259V7.13122H2.18517V7.3819H2.25259V7.56985H2.31863V7.75788H2.52029V7.56985H2.58706V7.3819H2.6531V7.13122H2.58706V6.94053H2.52029V6.75258H2.31863ZM0.379539 6.62724H0.513688V6.25126H0.379539V6.62724ZM1.45023 6.62724H1.58443V6.25126H1.45023V6.62724ZM2.52162 6.62724H2.65516V6.25126H2.52162V6.62724ZM0.915575 5.74724H1.04839V5.43112H0.915575V5.74724ZM1.98691 5.74724H2.12046V5.43112H1.98691V5.74724ZM0.379539 4.80184H0.513688V4.42587H0.379539V4.80184ZM1.45023 4.80184H1.58443V4.42587H1.45023V4.80184ZM2.52162 4.80184H2.65516V4.42587H2.52162V4.80184ZM0.648567 5.43116H0.781383V5.11783H0.915575V4.80184H1.04839V5.11783H1.18327V5.43116H1.31609V5.74728H1.18327V6.06061H1.04839V6.3766H0.915575V6.06061H0.781383V5.74728H0.648567V5.43116ZM1.71931 5.43116H1.85345V5.11783H1.98696V4.80184H2.1205V5.11783H2.25401V5.43116H2.38816V5.74728H2.25401V6.06061H2.1205V6.3766H1.98696V6.06061H1.85345V5.74728H1.71931V5.43116ZM1.98691 4.17244V4.48856H1.85341V4.80189H1.71926V5.11788H1.58438V5.43121H1.45019V5.11788H1.316V4.80189H1.18318V4.48856H1.04972V4.17244H0.915532V4.48856H0.78134V4.80189H0.648524V5.11788H0.513645V5.43121H0.379539V5.74733H0.513688V6.06065H0.648567V6.37665H0.781383V6.69264H0.915575V7.00597H1.04839V6.69264H1.18327V6.37665H1.31609V6.06065H1.45028V5.74733H1.58447V6.06065H1.71935V6.37665H1.85216V6.69264H1.98696V7.00597H2.1205V6.69264H2.25401V6.37665H2.38816V6.06065H2.52162V5.74733H2.65516V5.43121H2.52231V5.11788H2.38811V4.80189H2.25397V4.48856H2.12046V4.17244H1.98691Z" fill="#FF4B55"/>
</svg>
