<svg width="13" height="13" viewBox="0 0 13 13" fill="none" xmlns="http://www.w3.org/2000/svg">
<path d="M11.966 1.08034C11.7219 0.836258 11.3262 0.836258 11.0821 1.08034L6.52313 5.63933L1.96416 1.08034C1.72008 0.836258 1.32435 0.836258 1.08028 1.08034C0.836196 1.32441 0.836196 1.72014 1.08028 1.96422L5.63925 6.52321L1.08029 11.0821C0.836209 11.3263 0.836209 11.722 1.08029 11.9661C1.32437 12.2101 1.7201 12.2101 1.96417 11.9661L6.52313 7.40708L11.0821 11.9661C11.3262 12.2101 11.7219 12.2101 11.966 11.9661C12.2101 11.722 12.2101 11.3263 11.966 11.0822L7.407 6.52321L11.966 1.96422C12.2101 1.72014 12.2101 1.32441 11.966 1.08034Z" fill="white"/>
</svg>
