<svg width="14" height="14" viewBox="0 0 14 14" fill="none" xmlns="http://www.w3.org/2000/svg">
<path fill-rule="evenodd" clip-rule="evenodd" d="M8.52862 10.7769L7 12.6875L5.47138 10.7769C2.82801 10.2178 0.871502 8.25257 0.871502 5.90669C0.871502 3.12638 3.6155 0.87237 7 0.87237C10.3845 0.87237 13.1285 3.12638 13.1285 5.90669C13.1285 8.25257 11.172 10.2178 8.52862 10.7769ZM7 0C3.13381 0 0 2.68756 0 6.0025C0 8.73644 2.13368 11.039 5.04962 11.7639L7 14.0004L8.95082 11.7639C11.8663 11.039 14 8.73644 14 6.0025C14 2.68756 10.8662 0 7 0Z" fill="black"/>
</svg>
