<svg width="23" height="25" viewBox="0 0 23 25" fill="none" xmlns="http://www.w3.org/2000/svg">
<path d="M19.3543 9.94436C19.3543 9.94436 19.9585 12.0301 19.9585 15.5208C19.9585 19.0116 19.4886 22.066 19.0187 22.5023C18.5487 22.9386 15.2594 23.375 11.5002 23.375C7.7409 23.375 4.45156 22.9386 3.98165 22.5023C3.51174 22.066 3.04183 19.0116 3.04183 15.5208C3.04183 12.0301 3.646 9.94436 3.646 9.94436M19.3543 9.94436C19.7258 9.92417 19.9801 9.90303 20.0927 9.88191C20.6298 9.78122 21.1668 9.07636 21.1668 8.2708C21.1668 7.46525 20.6298 6.76039 20.0927 6.6597C19.5558 6.559 15.7965 6.45831 11.5002 6.45831C7.20386 6.45831 3.4446 6.559 2.90757 6.6597C2.37053 6.76039 1.8335 7.46525 1.8335 8.2708C1.8335 9.07636 2.37053 9.78122 2.90757 9.88191C3.02021 9.90303 3.27461 9.92417 3.646 9.94436M19.3543 9.94436C17.9551 10.0204 14.8953 10.0833 11.5002 10.0833C8.105 10.0833 5.04522 10.0204 3.646 9.94436M11.3381 6.27702C12.0016 3.80125 15.8042 -0.487376 17.6169 2.65202C19.4295 5.79156 13.8141 6.9406 11.3381 6.27702ZM11.5754 6.27702C10.9119 3.80125 7.10931 -0.487376 5.29678 2.65202C3.48416 5.79156 9.09945 6.9406 11.5754 6.27702Z" stroke="#22B342" stroke-width="2" stroke-linecap="round" stroke-linejoin="round"/>
</svg>
