<svg width="12" height="14" viewBox="0 0 12 14" fill="none" xmlns="http://www.w3.org/2000/svg">
<path d="M9.10514 5.19091C10.065 5.79079 10.5449 6.09073 10.7095 6.47479C10.8532 6.81013 10.8532 7.18979 10.7095 7.52519C10.5449 7.90919 10.065 8.20913 9.10514 8.80906L4.59701 11.6267C3.53171 12.2925 2.99905 12.6254 2.55949 12.59C2.17635 12.5592 1.82513 12.3646 1.59594 12.056C1.33301 11.702 1.33301 11.0739 1.33301 9.81759V4.18237C1.33301 2.92612 1.33301 2.298 1.59594 1.94398C1.82513 1.63539 2.17635 1.44073 2.55949 1.40993C2.99905 1.37459 3.53171 1.7075 4.59701 2.37331L9.10514 5.19091Z" stroke="#D22D2F" stroke-width="2" stroke-linejoin="round"/>
</svg>
