<svg width="21" height="21" viewBox="0 0 21 21" fill="none" xmlns="http://www.w3.org/2000/svg">
<path fill-rule="evenodd" clip-rule="evenodd" d="M8.8354 16.0503C4.70652 16.0503 1.35945 12.7615 1.35945 8.69805C1.35945 4.63458 4.70652 1.3392 8.8354 1.3392C12.9643 1.3392 16.312 4.63458 16.312 8.69805C16.312 12.7615 12.9643 16.0503 8.8354 16.0503ZM20.8006 19.8578L15.3792 14.5208C16.7984 12.9781 17.6708 10.9431 17.6708 8.69805C17.6708 3.89279 13.7152 0 8.8354 0C3.95558 0 0 3.89279 0 8.69805C0 13.4967 3.95558 17.3895 8.8354 17.3895C10.9438 17.3895 12.8776 16.6609 14.3966 15.4464L19.8396 20.8031C20.1055 21.0656 20.5354 21.0656 20.8006 20.8031C21.0665 20.547 21.0665 20.1204 20.8006 19.8578Z" fill="white"/>
</svg>
