<svg width="17" height="17" viewBox="0 0 17 17" fill="none" xmlns="http://www.w3.org/2000/svg">
<path d="M6.24642 3.28161C7.24917 1.48275 7.75053 0.583313 8.50016 0.583313C9.24979 0.583313 9.75115 1.48274 10.7539 3.28161L11.0133 3.74699C11.2983 4.25817 11.4407 4.51377 11.663 4.68241C11.8851 4.85105 12.1617 4.91365 12.7151 5.03885L13.2189 5.15284C15.1661 5.59342 16.1397 5.81371 16.3714 6.5586C16.603 7.30345 15.9393 8.07968 14.6118 9.63198L14.2683 10.0336C13.8911 10.4747 13.7024 10.6953 13.6176 10.9682C13.5328 11.241 13.5613 11.5353 13.6183 12.1239L13.6702 12.6597C13.8709 14.7309 13.9713 15.7664 13.3649 16.2268C12.7584 16.6872 11.8468 16.2674 10.0236 15.428L9.55189 15.2108C9.03383 14.9723 8.77479 14.8529 8.50016 14.8529C8.22553 14.8529 7.9665 14.9723 7.44843 15.2108L6.97676 15.428C5.15354 16.2674 4.24193 16.6872 3.63549 16.2268C3.02905 15.7664 3.1294 14.7309 3.33011 12.6597L3.38202 12.1239C3.43906 11.5353 3.46758 11.241 3.38272 10.9682C3.29787 10.6953 3.10925 10.4747 2.73202 10.0336L2.38858 9.63198C1.06107 8.07968 0.397313 7.30345 0.628955 6.5586C0.860597 5.81371 1.83422 5.59342 3.78147 5.15284L4.28524 5.03885C4.83859 4.91365 5.11526 4.85105 5.33741 4.68241C5.55956 4.51377 5.70204 4.25818 5.98699 3.74699L6.24642 3.28161Z" fill="#FCF445"/>
</svg>
