<svg width="21" height="21" viewBox="0 0 21 21" fill="none" xmlns="http://www.w3.org/2000/svg">
<path d="M11.1703 1C11.1703 1 10.9435 4.44327 13.3901 8.58634C15.8367 12.7295 19 14.2592 19 14.2592M1 6.74084C1 6.74084 4.16334 8.2705 6.60992 12.4136C9.05652 16.5567 8.82977 20 8.82977 20" stroke="#515971" stroke-width="2"/>
<path d="M5.75 2.27093C7.14733 1.46262 8.76967 1 10.5 1C15.7467 1 20 5.25329 20 10.5C20 15.7467 15.7467 20 10.5 20C5.25329 20 1 15.7467 1 10.5C1 8.76967 1.46262 7.14733 2.27093 5.75" stroke="#515971" stroke-width="2" stroke-linecap="round"/>
</svg>
